<svg xmlns="http://www.w3.org/2000/svg" width="15.054" height="14.66" viewBox="0 0 15.054 14.66"><defs><style>.a{fill:#0171ed;stroke:#0171ed;stroke-width:0.5px;}</style></defs><g transform="translate(0.25 -5.778)"><g transform="translate(0 6.028)"><g transform="translate(0 0)"><path class="a" d="M98.172,350.322a1.519,1.519,0,1,0,1.519,1.519A1.519,1.519,0,0,0,98.172,350.322Zm0,2.363a.844.844,0,1,1,.844-.844A.844.844,0,0,1,98.172,352.685Z" transform="translate(-93.531 -339.2)"/><path class="a" d="M296.7,350.322a1.519,1.519,0,1,0,1.519,1.519A1.519,1.519,0,0,0,296.7,350.322Zm0,2.363a.844.844,0,1,1,.844-.844A.844.844,0,0,1,296.7,352.685Z" transform="translate(-285.648 -339.2)"/><path class="a" d="M14.481,8.29a.422.422,0,0,0-.27-.135L3.224,8l-.3-.928A1.553,1.553,0,0,0,1.468,6.028H.338a.338.338,0,1,0,0,.675H1.468a.878.878,0,0,1,.81.591l2.143,6.464-.169.388A1.62,1.62,0,0,0,4.4,15.614a1.57,1.57,0,0,0,1.266.709h6.565a.338.338,0,0,0,0-.675H5.671a.861.861,0,0,1-.709-.405.928.928,0,0,1-.084-.81l.135-.3,7.105-.743a1.857,1.857,0,0,0,1.6-1.418l.81-3.392A.287.287,0,0,0,14.481,8.29Zm-1.418,3.527a1.148,1.148,0,0,1-1.03.894l-7.021.726L3.443,8.678l10.346.152Z" transform="translate(0 -6.028)"/></g></g></g></svg>